<mxfile host="app.diagrams.net" agent="Mozilla/5.0 (Windows NT 10.0; Win64; x64) AppleWebKit/537.36 (KHTML, like Gecko) Chrome/132.0.0.0 Safari/537.36 OPR/117.0.0.0" version="26.0.16">
  <diagram name="Página-1" id="3rRIlsvqHoR2NcuQ6gPC">
    <mxGraphModel dx="1380" dy="1942" grid="1" gridSize="10" guides="1" tooltips="1" connect="1" arrows="1" fold="1" page="1" pageScale="1" pageWidth="827" pageHeight="1169" math="0" shadow="0">
      <root>
        <mxCell id="0" />
        <mxCell id="1" parent="0" />
        <mxCell id="cOWFRHbCmEcg8csdMzk4-1" style="edgeStyle=orthogonalEdgeStyle;rounded=0;orthogonalLoop=1;jettySize=auto;html=1;exitX=1;exitY=0.5;exitDx=0;exitDy=0;" edge="1" parent="1" source="cOWFRHbCmEcg8csdMzk4-2" target="cOWFRHbCmEcg8csdMzk4-6">
          <mxGeometry relative="1" as="geometry" />
        </mxCell>
        <mxCell id="cOWFRHbCmEcg8csdMzk4-2" value="INICIO" style="ellipse;whiteSpace=wrap;html=1;" vertex="1" parent="1">
          <mxGeometry y="-80" width="120" height="80" as="geometry" />
        </mxCell>
        <mxCell id="cOWFRHbCmEcg8csdMzk4-3" style="edgeStyle=orthogonalEdgeStyle;rounded=0;orthogonalLoop=1;jettySize=auto;html=1;exitX=0.5;exitY=0;exitDx=0;exitDy=0;" edge="1" parent="1" source="cOWFRHbCmEcg8csdMzk4-4" target="cOWFRHbCmEcg8csdMzk4-14">
          <mxGeometry relative="1" as="geometry">
            <mxPoint x="535" y="250" as="targetPoint" />
          </mxGeometry>
        </mxCell>
        <mxCell id="cOWFRHbCmEcg8csdMzk4-4" value="BOTAO DE ATIVAR / DESATIVAR" style="rounded=1;whiteSpace=wrap;html=1;" vertex="1" parent="1">
          <mxGeometry x="780" y="-230" width="230" height="60" as="geometry" />
        </mxCell>
        <mxCell id="cOWFRHbCmEcg8csdMzk4-5" style="edgeStyle=orthogonalEdgeStyle;rounded=0;orthogonalLoop=1;jettySize=auto;html=1;exitX=1;exitY=0.5;exitDx=0;exitDy=0;" edge="1" parent="1" source="cOWFRHbCmEcg8csdMzk4-6" target="cOWFRHbCmEcg8csdMzk4-8">
          <mxGeometry relative="1" as="geometry" />
        </mxCell>
        <mxCell id="cOWFRHbCmEcg8csdMzk4-6" value="CADASTRAR TIPO" style="rounded=1;whiteSpace=wrap;html=1;" vertex="1" parent="1">
          <mxGeometry x="170" y="130" width="120" height="60" as="geometry" />
        </mxCell>
        <mxCell id="cOWFRHbCmEcg8csdMzk4-7" style="edgeStyle=orthogonalEdgeStyle;rounded=0;orthogonalLoop=1;jettySize=auto;html=1;exitX=1;exitY=0.5;exitDx=0;exitDy=0;" edge="1" parent="1" source="cOWFRHbCmEcg8csdMzk4-8" target="cOWFRHbCmEcg8csdMzk4-10">
          <mxGeometry relative="1" as="geometry">
            <mxPoint x="660" y="170" as="targetPoint" />
          </mxGeometry>
        </mxCell>
        <mxCell id="cOWFRHbCmEcg8csdMzk4-24" style="edgeStyle=orthogonalEdgeStyle;rounded=0;orthogonalLoop=1;jettySize=auto;html=1;exitX=1;exitY=0.5;exitDx=0;exitDy=0;entryX=0;entryY=0.5;entryDx=0;entryDy=0;" edge="1" parent="1" source="cOWFRHbCmEcg8csdMzk4-8" target="cOWFRHbCmEcg8csdMzk4-23">
          <mxGeometry relative="1" as="geometry" />
        </mxCell>
        <mxCell id="cOWFRHbCmEcg8csdMzk4-8" value="ABRE MODAL ONDE SE DEVE CADASTRA UM TIPO" style="rounded=1;whiteSpace=wrap;html=1;" vertex="1" parent="1">
          <mxGeometry x="330" y="130" width="120" height="60" as="geometry" />
        </mxCell>
        <mxCell id="cOWFRHbCmEcg8csdMzk4-10" value="ONDE AO CLICAR EM SALVAR MANDA PARA O BANCO DE DADOS ONDE DA UM INSERT NELE APOS ISSO&amp;nbsp; FECHA O MODAL" style="rounded=1;whiteSpace=wrap;html=1;" vertex="1" parent="1">
          <mxGeometry x="770" y="85" width="130" height="150" as="geometry" />
        </mxCell>
        <mxCell id="cOWFRHbCmEcg8csdMzk4-11" style="edgeStyle=orthogonalEdgeStyle;rounded=0;orthogonalLoop=1;jettySize=auto;html=1;exitX=1;exitY=0.5;exitDx=0;exitDy=0;entryX=1;entryY=0.5;entryDx=0;entryDy=0;" edge="1" parent="1" source="cOWFRHbCmEcg8csdMzk4-13" target="cOWFRHbCmEcg8csdMzk4-4">
          <mxGeometry relative="1" as="geometry" />
        </mxCell>
        <mxCell id="cOWFRHbCmEcg8csdMzk4-13" value="CADA TIPO CADASTRADO APARECE OS BOTOES" style="rounded=1;whiteSpace=wrap;html=1;" vertex="1" parent="1">
          <mxGeometry x="400" y="-160" width="120" height="60" as="geometry" />
        </mxCell>
        <mxCell id="cOWFRHbCmEcg8csdMzk4-14" value="DESATIVA OU ATIVA O TIPO EM QUESTAO APARECENDO UM ALERTA" style="rounded=1;whiteSpace=wrap;html=1;" vertex="1" parent="1">
          <mxGeometry x="590" y="-330" width="120" height="140" as="geometry" />
        </mxCell>
        <mxCell id="cOWFRHbCmEcg8csdMzk4-15" style="edgeStyle=orthogonalEdgeStyle;rounded=0;orthogonalLoop=1;jettySize=auto;html=1;exitX=1;exitY=0.5;exitDx=0;exitDy=0;" edge="1" parent="1" source="cOWFRHbCmEcg8csdMzk4-16" target="cOWFRHbCmEcg8csdMzk4-18">
          <mxGeometry relative="1" as="geometry">
            <mxPoint x="1100" y="50" as="targetPoint" />
          </mxGeometry>
        </mxCell>
        <mxCell id="cOWFRHbCmEcg8csdMzk4-16" value="BOTAO DE EDITAR" style="rounded=1;whiteSpace=wrap;html=1;" vertex="1" parent="1">
          <mxGeometry x="390" y="-40" width="120" height="60" as="geometry" />
        </mxCell>
        <mxCell id="cOWFRHbCmEcg8csdMzk4-18" value="ABRE O MODAL DE TIPO PARA FAZER A EDIÇAO DO TIPO DESEJADO QUE APOS CLICAR EM SALVAR MANDA UM UPDATE NO BANCO DE DADOS COM AS INFORMAÇOES ALTERADAS" style="rounded=1;whiteSpace=wrap;html=1;" vertex="1" parent="1">
          <mxGeometry x="650" y="-100" width="120" height="160" as="geometry" />
        </mxCell>
        <mxCell id="cOWFRHbCmEcg8csdMzk4-27" style="edgeStyle=orthogonalEdgeStyle;rounded=0;orthogonalLoop=1;jettySize=auto;html=1;exitX=1;exitY=0.5;exitDx=0;exitDy=0;entryX=0;entryY=0.5;entryDx=0;entryDy=0;" edge="1" parent="1" source="cOWFRHbCmEcg8csdMzk4-19" target="cOWFRHbCmEcg8csdMzk4-13">
          <mxGeometry relative="1" as="geometry" />
        </mxCell>
        <mxCell id="cOWFRHbCmEcg8csdMzk4-19" value="APARECE A LISTAGEM DOS TIPOS" style="rounded=1;whiteSpace=wrap;html=1;" vertex="1" parent="1">
          <mxGeometry x="170" y="-10" width="120" height="60" as="geometry" />
        </mxCell>
        <mxCell id="cOWFRHbCmEcg8csdMzk4-21" style="edgeStyle=orthogonalEdgeStyle;rounded=0;orthogonalLoop=1;jettySize=auto;html=1;exitX=0.5;exitY=1;exitDx=0;exitDy=0;entryX=0;entryY=0.5;entryDx=0;entryDy=0;" edge="1" parent="1" source="cOWFRHbCmEcg8csdMzk4-20" target="cOWFRHbCmEcg8csdMzk4-6">
          <mxGeometry relative="1" as="geometry" />
        </mxCell>
        <mxCell id="cOWFRHbCmEcg8csdMzk4-20" value="ONDE TEM UM BOTAO PARA&amp;nbsp;" style="rounded=1;whiteSpace=wrap;html=1;" vertex="1" parent="1">
          <mxGeometry x="40" y="60" width="120" height="60" as="geometry" />
        </mxCell>
        <mxCell id="cOWFRHbCmEcg8csdMzk4-23" value="ONDE&amp;nbsp;&lt;div&gt;VERIFICA SE O CAMPO FOI PREENCHIDO&lt;/div&gt;" style="rhombus;whiteSpace=wrap;html=1;" vertex="1" parent="1">
          <mxGeometry x="490" y="92.5" width="150" height="135" as="geometry" />
        </mxCell>
        <mxCell id="cOWFRHbCmEcg8csdMzk4-28" style="edgeStyle=orthogonalEdgeStyle;rounded=0;orthogonalLoop=1;jettySize=auto;html=1;exitX=0.5;exitY=1;exitDx=0;exitDy=0;entryX=0.6;entryY=-0.017;entryDx=0;entryDy=0;entryPerimeter=0;" edge="1" parent="1" source="cOWFRHbCmEcg8csdMzk4-13" target="cOWFRHbCmEcg8csdMzk4-16">
          <mxGeometry relative="1" as="geometry" />
        </mxCell>
      </root>
    </mxGraphModel>
  </diagram>
</mxfile>
